<svg xmlns="http://www.w3.org/2000/svg" viewBox="0 0 1266.95 936.57"><defs><style>.cls-1{fill:#f6871f;}.cls-1,.cls-2,.cls-3,.cls-4{stroke:#fad390;stroke-miterlimit:10;}.cls-1,.cls-3,.cls-4{stroke-width:30px;}.cls-2,.cls-3{fill:#fad390;}.cls-2{stroke-width:5px;}.cls-4{fill:none;}</style></defs><title>Logo color rendation 2</title><g id="Ears_1" data-name="Ears 1"><ellipse class="cls-1" cx="1377.84" cy="713.73" rx="216.55" ry="183.46" transform="translate(-326.02 926.38) rotate(-54.38)"/><ellipse class="cls-1" cx="542.16" cy="713.73" rx="183.46" ry="216.55" transform="translate(-674.99 247.1) rotate(-54.38)"/></g><g id="Ears_2" data-name="Ears 2"><ellipse class="cls-2" cx="600.94" cy="769.61" rx="147.35" ry="207.2" transform="translate(-695.87 318.17) rotate(-54.38)"/><ellipse class="cls-2" cx="1319.06" cy="769.61" rx="207.2" ry="147.35" transform="translate(-395.99 901.93) rotate(-54.38)"/></g><g id="Face"><ellipse class="cls-1" cx="638.79" cy="468.29" rx="500.69" ry="453.29"/></g><g id="Face_Detail" data-name="Face Detail"><path class="cls-2" d="M1449.67,872.67c-17.34,0-104.67,27.13-147.34,8.8,56.67,47.86,151.34,57.86,155.67,56.2-4.29,15.84-131.24,64.63-250-8.34,100,114.34,226,152,233.67,141.67-9,15.33-104.34,46-201-4,40.66,36.67,132.66,100,174,76.67C1469.83,1068.33,1463.17,903.17,1449.67,872.67Z" transform="translate(-321.21 -491.71)"/><path class="cls-2" d="M472.24,872.67c17.29-.45,103.8,24.56,146.74,5-57.54,49.59-152.16,62.1-156.45,60.54C466.47,954,592,999.79,712,923.35,609.85,1040.88,483.38,1082,476,1071.84c8.64,15.17,103.06,43.52,200.53-9.25-41.34,37.91-134.45,104-175.17,81.59C447.93,1069.89,458.12,903.68,472.24,872.67Z" transform="translate(-321.21 -491.71)"/><path class="cls-2" d="M697.67,574.33C667.26,596.45,818.33,629,809.67,699c34.66-13.33,66.66-88,71.33-108s74.67,189.33,73.33,144.67S1012.33,633,1001,603s77,144.25,52,174,105.83-45.63,86.41-240.31C975,487,840.74,488.22,697.67,574.33Z" transform="translate(-321.21 -491.71)"/><ellipse class="cls-2" cx="447.56" cy="344.54" rx="27.67" ry="19.67"/><ellipse class="cls-2" cx="830.03" cy="344.54" rx="27.67" ry="19.67"/><polygon class="cls-3" points="571.5 517.59 627.24 573.34 682.84 517.75 571.5 517.59"/></g><g id="Moustache"><path class="cls-4" d="M1089.9,1031.7c12.52,41.24-83.75,107.75-141.45,32.55" transform="translate(-321.21 -491.71)"/><path class="cls-4" d="M807,1032.5c-12.52,41.24,83.75,107.75,141.45,32.55" transform="translate(-321.21 -491.71)"/></g></svg>